#!OML:ASF G:\JayActor3\Patient Classification 1\Patient 1\Session 6\male.ASF
:FULLY-SPECIFIED
:DEGREES
1338
root 9.24329 13.788 -4.05601 13.5893 -33.4229 7.99961
lowerback 36.0328 3.80839 13.9298
upperback 11.3377 9.30137 6.18497
thorax -4.05651 4.32509 -3.60274
lowerneck -7.57549 -1.61846 2.45867
upperneck 14.3742 0.949928 -25.2467
head 5.7192 -1.09022 -8.64865
rclavicle 6.36111e-015 -6.04305e-014
rhumerus 21.2546 -20.4824 -70.4649
rradius 69.7039
rwrist -80.3351
rhand -30.393 -0.432411
rfingers 7.12502
rthumb -3.69702 -30.3801
lclavicle 6.36111e-015 -6.04305e-014
lhumerus -55.9197 -18.9809 100.461
lradius 51.7121
lwrist 31.4855
lhand -6.75878 2.14721
lfingers 7.12502
lthumb 19.1028 31.2291
rfemur -75.1374 -34.0773 22.6194
rtibia 86.1744
rfoot -28.9767 -9.42834
rtoes -2.37736
lfemur -70.6451 6.87408 -31.5712
ltibia 72.3731
lfoot -18.2839 -0.895639
ltoes -2.20269
1339
root 9.23704 13.8233 -4.04739 13.4118 -33.3949 7.89398
lowerback 35.875 3.8243 13.8784
upperback 11.3029 9.28983 6.18413
thorax -4.0499 4.32157 -3.57049
lowerneck -7.53396 -1.61915 2.42481
upperneck 14.3986 0.95684 -25.2466
head 5.72017 -1.08838 -8.6423
rclavicle -4.45278e-014 6.36111e-015
rhumerus 20.9746 -20.2723 -70.3932
rradius 70.1317
rwrist -80.4484
rhand -30.2011 -0.486392
rfingers 7.12502
rthumb -3.5117 -30.4372
lclavicle -4.45278e-014 6.36111e-015
lhumerus -55.9158 -18.9926 100.375
lradius 51.6336
lwrist 31.3908
lhand -6.85439 2.17183
lfingers 7.12502
lthumb 19.0109 31.2628
rfemur -74.43 -34.0253 22.4646
rtibia 85.746
rfoot -28.9555 -9.48083
rtoes -2.34027
lfemur -70.0572 6.93473 -31.4185
ltibia 71.9649
lfoot -18.231 -0.920671
ltoes -2.17199
1340
root 9.23095 13.8581 -4.03856 13.2441 -33.3594 7.77616
lowerback 35.7101 3.84114 13.8338
upperback 11.2691 9.28107 6.19122
thorax -4.03909 4.31952 -3.53339
lowerneck -7.50018 -1.62047 2.39117
upperneck 14.4267 0.9639 -25.2457
head 5.72383 -1.08719 -8.63609
rclavicle 3.18055e-014 1.27222e-014
rhumerus 20.6976 -20.0591 -70.309
rradius 70.5595
rwrist -80.5593
rhand -30.0265 -0.552339
rfingers 7.12502
rthumb -3.343 -30.5059
lclavicle 3.18055e-014 1.27222e-014
lhumerus -55.9033 -18.9892 100.29
lradius 51.5543
lwrist 31.2809
lhand -6.96458 2.19126
lfingers 7.12502
lthumb 18.9049 31.2926
rfemur -73.7249 -33.9735 22.3232
rtibia 85.3155
rfoot -28.9345 -9.53491
rtoes -2.2839
lfemur -69.4757 6.98196 -31.2503
ltibia 71.5611
lfoot -18.1777 -0.937289
ltoes -2.14374
1341
root 9.22492 13.8926 -4.02951 13.0882 -33.319 7.64487
lowerback 35.5424 3.85433 13.7983
upperback 11.2347 9.27057 6.19954
thorax -4.02651 4.31682 -3.49846
lowerneck -7.47996 -1.61949 2.36001
upperneck 14.457 0.974763 -25.2428
head 5.73128 -1.08497 -8.62988
rclavicle -7.95139e-014 2.22639e-014
rhumerus 20.4226 -19.834 -70.2216
rradius 70.9941
rwrist -80.6509
rhand -29.8598 -0.626626
rfingers 7.12502
rthumb -3.18203 -30.5826
lclavicle -7.95139e-014 2.22639e-014
lhumerus -55.8861 -18.9719 100.201
lradius 51.4807
lwrist 31.1679
lhand -7.08612 2.19197
lfingers 7.12502
lthumb 18.788 31.3046
rfemur -73.0232 -33.9181 22.196
rtibia 84.882
rfoot -28.9144 -9.58981
rtoes -2.21245
lfemur -68.9028 7.02128 -31.0684
ltibia 71.1623
lfoot -18.1233 -0.959181
ltoes -2.09808
1342
root 9.21885 13.9269 -4.02023 12.9517 -33.274 7.4873
lowerback 35.3746 3.8579 13.7852
upperback 11.1992 9.25529 6.20459
thorax -4.01081 4.3124 -3.47587
lowerneck -7.47623 -1.61223 2.33222
upperneck 14.4871 0.994334 -25.2345
head 5.74315 -1.07913 -8.62227
rclavicle 1.90833e-014 1.59028e-014
rhumerus 20.1547 -19.5959 -70.1464
rradius 71.4339
rwrist -80.7085
rhand -29.6888 -0.718157
rfingers 7.12502
rthumb -3.01694 -30.6766
lclavicle 1.90833e-014 1.59028e-014
lhumerus -55.8658 -18.9431 100.103
lradius 51.4158
lwrist 31.065
lhand -7.2094 2.184
lfingers 7.12502
lthumb 18.6694 31.3081
rfemur -72.3222 -33.8544 22.0947
rtibia 84.4438
rfoot -28.8952 -9.64989
rtoes -2.14308
lfemur -68.3407 7.05729 -30.862
ltibia 70.769
lfoot -18.0689 -0.987364
ltoes -2.03002
